<svg width="132" height="132" viewBox="0 0 132 132" fill="none" xmlns="http://www.w3.org/2000/svg">
<rect x="76.5628" y="76.5619" width="51.0417" height="51.0417" rx="7.29167" fill="white" stroke="#1A192B" stroke-width="7.29167"/>
<rect x="76.5628" y="3.64584" width="51.0417" height="51.0417" rx="7.29167" fill="white" stroke="#FF0072" stroke-width="7.29167"/>
<rect x="3.64584" y="76.5619" width="51.0417" height="51.0417" rx="7.29167" fill="white" stroke="#1A192B" stroke-width="7.29167"/>
<rect x="3.64584" y="3.64584" width="51.0417" height="51.0417" rx="7.29167" fill="white" stroke="#1A192B" stroke-width="7.29167"/>
<circle cx="54.6875" cy="29.166" r="10.9375" fill="white"/>
<circle cx="76.5625" cy="29.166" r="10.9375" fill="white"/>
<circle cx="102.083" cy="54.6875" r="10.9375" fill="white"/>
<circle cx="102.083" cy="76.5625" r="10.9375" fill="white"/>
<circle cx="54.6875" cy="102.084" r="10.9375" fill="white"/>
<circle cx="76.5625" cy="102.084" r="10.9375" fill="white"/>
<circle cx="102.084" cy="76.5622" r="7.29167" fill="#1A192B"/>
<circle cx="54.6862" cy="102.084" r="7.29167" fill="#1A192B"/>
<circle cx="76.5622" cy="102.084" r="7.29167" fill="#1A192B"/>
<rect opacity="0.35" x="58.333" y="27.3438" width="14.5833" height="3.64584" fill="#1A192B"/>
<rect opacity="0.35" x="100.262" y="71.0938" width="14.5833" height="3.64584" transform="rotate(-90 100.262 71.0938)" fill="#1A192B"/>
<rect opacity="0.35" x="58.333" y="100.26" width="14.5833" height="3.64584" fill="#1A192B"/>
<circle cx="54.6862" cy="29.1667" r="7.29167" fill="#1A192B"/>
<circle cx="76.5622" cy="29.1667" r="7.29167" fill="#FF0072"/>
<circle cx="102.084" cy="54.6882" r="7.29167" fill="#FF0072"/>
</svg>
